<?xml version="1.0" encoding="utf-8"?>
<svg version="1.0" xmlns="http://www.w3.org/2000/svg"
     width="16.000000pt" height="16.000000pt" viewBox="0 0 512.000000 512.000000"
     preserveAspectRatio="xMidYMid meet">

    <g transform="translate(0.000000,512.000000) scale(0.100000,-0.100000)"
       fill="current" stroke="none">

        <path d="M660 4057 c-66 -23 -98 -104 -66 -166 31 -58 39 -60 335 -63 222 -2
             273 -6 281 -17 4 -8 47 -213 95 -455 123 -629 115 -588 225 -1201 73 -404 108
             -574 125 -612 45 -99 141 -171 254 -193 76 -14 1938 -14 2017 1 108 20 204 91
             253 187 12 24 92 360 192 809 148 666 170 775 164 823 -13 115 -90 227 -194
             277 l-56 28 -1380 5 -1380 5 -36 182 c-20 100 -44 202 -53 227 -21 55 -81 116
             -144 147 -45 22 -58 23 -322 26 -200 2 -284 -1 -310 -10z m3611 -855 c17 -19
             29 -44 29 -60 0 -48 -321 -1476 -339 -1507 -10 -17 -31 -35 -51 -42 -50 -17
             -1930 -17 -1980 0 -20 7 -41 24 -51 42 -11 18 -54 239 -114 570 -105 589 -172
             964 -181 1008 l-6 27 1332 -2 1332 -3 29 -33z"/>

        <path d="M2058 1185 c-165 -61 -212 -270 -88 -393 52 -52 87 -66 165 -66 103
             0 174 43 221 134 25 50 24 153 -3 205 -57 109 -185 161 -295 120z"/>

        <path d="M3638 1186 c-56 -20 -85 -42 -117 -87 -84 -115 -46 -279 79 -349 36
             -20 59 -25 116 -25 61 0 77 4 120 30 30 19 60 49 79 79 27 44 30 58 30 126 0
             68 -3 82 -30 126 -57 92 -181 137 -277 100z"/>
    </g>
</svg>